<svg id="visual" viewBox="0 0 1080 100" width="1080" height="100" xmlns="http://www.w3.org/2000/svg" xmlns:xlink="http://www.w3.org/1999/xlink" version="1.1"><path d="M0 15L60 29L120 38L180 16L240 29L300 37L360 19L420 17L480 35L540 34L600 22L660 26L720 29L780 46L840 31L900 44L960 20L1020 23L1080 21L1080 101L1020 101L960 101L900 101L840 101L780 101L720 101L660 101L600 101L540 101L480 101L420 101L360 101L300 101L240 101L180 101L120 101L60 101L0 101Z" fill="#7f5af0"></path><path d="M0 42L60 39L120 49L180 37L240 48L300 54L360 57L420 56L480 54L540 53L600 45L660 37L720 43L780 57L840 58L900 60L960 48L1020 58L1080 48L1080 101L1020 101L960 101L900 101L840 101L780 101L720 101L660 101L600 101L540 101L480 101L420 101L360 101L300 101L240 101L180 101L120 101L60 101L0 101Z" fill="#4d46a6"></path><path d="M0 61L60 57L120 63L180 56L240 74L300 63L360 74L420 54L480 53L540 65L600 52L660 66L720 75L780 68L840 63L900 58L960 71L1020 68L1080 70L1080 101L1020 101L960 101L900 101L840 101L780 101L720 101L660 101L600 101L540 101L480 101L420 101L360 101L300 101L240 101L180 101L120 101L60 101L0 101Z" fill="#2d2f5d"></path><path d="M0 81L60 81L120 69L180 75L240 73L300 87L360 85L420 75L480 81L540 78L600 74L660 88L720 72L780 77L840 79L900 77L960 74L1020 81L1080 69L1080 101L1020 101L960 101L900 101L840 101L780 101L720 101L660 101L600 101L540 101L480 101L420 101L360 101L300 101L240 101L180 101L120 101L60 101L0 101Z" fill="#16161a"></path></svg>